<?xml version="1.0" encoding="utf-8"?>
<!-- Generator: Adobe Illustrator 16.0.4, SVG Export Plug-In . SVG Version: 6.00 Build 0)  -->
<!DOCTYPE svg PUBLIC "-//W3C//DTD SVG 1.1//EN" "http://www.w3.org/Graphics/SVG/1.1/DTD/svg11.dtd" [
	<!ENTITY ns_flows "http://ns.adobe.com/Flows/1.0/">
	<!ENTITY ns_extend "http://ns.adobe.com/Extensibility/1.0/">
	<!ENTITY ns_ai "http://ns.adobe.com/AdobeIllustrator/10.0/">
	<!ENTITY ns_graphs "http://ns.adobe.com/Graphs/1.0/">
	<!ENTITY ns_vars "http://ns.adobe.com/Variables/1.0/">
	<!ENTITY ns_imrep "http://ns.adobe.com/ImageReplacement/1.0/">
	<!ENTITY ns_sfw "http://ns.adobe.com/SaveForWeb/1.0/">
	<!ENTITY ns_custom "http://ns.adobe.com/GenericCustomNamespace/1.0/">
	<!ENTITY ns_adobe_xpath "http://ns.adobe.com/XPath/1.0/">
]>
<svg version="1.1" id="Layer_1" xmlns:x="&ns_extend;" xmlns:i="&ns_ai;" xmlns:graph="&ns_graphs;"
	 xmlns="http://www.w3.org/2000/svg" xmlns:xlink="http://www.w3.org/1999/xlink" xmlns:a="http://ns.adobe.com/AdobeSVGViewerExtensions/3.0/"
	 x="0px" y="0px" width="595.3px" height="595.3px" viewBox="0 0 595.3 595.3" enable-background="new 0 0 595.3 595.3"
	 xml:space="preserve">
<metadata>
	<sfw  xmlns="&ns_sfw;">
		<slices></slices>
		<sliceSourceBounds  width="170.2" height="298" y="-1686.5" x="1400.4" bottomLeftOrigin="true"></sliceSourceBounds>
	</sfw>
</metadata>
<g>
	<path fill="#223A51" d="M382.7,269.6v120.5c0,31.2-25.3,56.5-56.5,56.5h-57.1c-31.2,0-56.5-25.3-56.5-56.5V269.6
		c0-12.1,3.9-23.8,11-33.6l40.4-54.8h67.3l40.4,54.8C378.8,245.8,382.7,257.5,382.7,269.6z"/>
	<rect x="258.6" y="148.7" fill="#FFF4E0" width="78.1" height="32.6"/>
	<rect x="212.5" y="301.5" fill="#EAD9BB" width="170.2" height="92.9"/>
	<path fill="#2E5B7C" d="M362.8,269.6v120.5c0,31.2-25.3,56.5-56.5,56.5h-37.2c-31.2,0-56.5-25.3-56.5-56.5V269.6
		c0-12.1,3.9-23.8,11-33.6l40.4-54.8h47.3l40.4,54.8C358.9,245.8,362.8,257.5,362.8,269.6z"/>
	<rect x="212.5" y="301.5" fill="#FFF4E0" width="150.3" height="92.9"/>
	<rect x="316.7" y="310.6" fill="#E5B16A" width="52.6" height="20.5"/>
	<rect x="294.1" y="342.2" fill="#E5B16A" width="75.3" height="20.5"/>
	<rect x="267.3" y="148.7" fill="#EAD9BB" width="8.7" height="32.6"/>
	<rect x="284.6" y="148.7" fill="#EAD9BB" width="8.7" height="32.6"/>
	<rect x="302" y="148.7" fill="#EAD9BB" width="8.7" height="32.6"/>
	<rect x="319.3" y="148.7" fill="#EAD9BB" width="8.7" height="32.6"/>
	<g>
		<path fill="#FFFFFF" d="M233.3,288.5c-3.5,0-6.2-2.8-6.2-6.2v-10.3c0-17.5,16.8-25.1,25.4-25.1h39.1c3.5,0,6.2,2.8,6.2,6.2
			s-2.8,6.2-6.2,6.2h-39.1c-1.5,0-12.9,2.7-12.9,12.6v10.3C239.5,285.7,236.7,288.5,233.3,288.5z"/>
	</g>
</g>
</svg>
