<?xml version="1.0" encoding="utf-8"?>
<!-- Generator: Adobe Illustrator 16.0.4, SVG Export Plug-In . SVG Version: 6.00 Build 0)  -->
<!DOCTYPE svg PUBLIC "-//W3C//DTD SVG 1.1//EN" "http://www.w3.org/Graphics/SVG/1.1/DTD/svg11.dtd" [
	<!ENTITY ns_flows "http://ns.adobe.com/Flows/1.0/">
	<!ENTITY ns_extend "http://ns.adobe.com/Extensibility/1.0/">
	<!ENTITY ns_ai "http://ns.adobe.com/AdobeIllustrator/10.0/">
	<!ENTITY ns_graphs "http://ns.adobe.com/Graphs/1.0/">
	<!ENTITY ns_vars "http://ns.adobe.com/Variables/1.0/">
	<!ENTITY ns_imrep "http://ns.adobe.com/ImageReplacement/1.0/">
	<!ENTITY ns_sfw "http://ns.adobe.com/SaveForWeb/1.0/">
	<!ENTITY ns_custom "http://ns.adobe.com/GenericCustomNamespace/1.0/">
	<!ENTITY ns_adobe_xpath "http://ns.adobe.com/XPath/1.0/">
]>
<svg version="1.1" id="Layer_1" xmlns:x="&ns_extend;" xmlns:i="&ns_ai;" xmlns:graph="&ns_graphs;"
	 xmlns="http://www.w3.org/2000/svg" xmlns:xlink="http://www.w3.org/1999/xlink" xmlns:a="http://ns.adobe.com/AdobeSVGViewerExtensions/3.0/"
	 x="0px" y="0px" width="595.3px" height="595.3px" viewBox="0 0 595.3 595.3" enable-background="new 0 0 595.3 595.3"
	 xml:space="preserve">
<metadata>
	<sfw  xmlns="&ns_sfw;">
		<slices></slices>
		<sliceSourceBounds  width="177" height="424.4" y="-1746.1" x="2648.1" bottomLeftOrigin="true"></sliceSourceBounds>
	</sfw>
</metadata>
<g>
	<path fill="#5F3422" d="M386.1,225.1v238.1c0,25.7-20.9,46.6-46.6,46.6h-83.7c-25.7,0-46.6-20.9-46.6-46.6V225.1
		c0-10,3.2-19.7,9.1-27.7l30.4-41.2c8.7-11.8,22.3-18.7,36.9-18.9h23.5c14.8,0,28.7,7,37.5,18.9l30.4,41.2
		C382.9,205.5,386.1,215.2,386.1,225.1z"/>
	<path fill="#EAD9BB" d="M356.4,109.1v28.2H238.9v-28.2c0-13,10.6-23.6,23.6-23.6h70.4C345.9,85.5,356.4,96,356.4,109.1z"/>
	<rect x="209.2" y="262.3" fill="#D39E47" width="177" height="193.3"/>
	<path fill="#9A5438" d="M362.6,225.1v238.1c0,25.7-20.9,46.6-46.7,46.6h-60.2c-25.7,0-46.6-20.9-46.6-46.6V225.1
		c0-10,3.2-19.7,9.1-27.7l30.4-41.2c8.7-11.8,22.3-18.7,36.9-18.9h0.6c14.5,0.2,28.2,7.2,36.9,18.9l30.4,41.2
		C359.4,205.5,362.6,215.2,362.6,225.1z"/>
	<path fill="#FFF4E0" d="M332.9,109.1v28.2h-94v-28.2c0-13,10.6-23.6,23.6-23.6h46.9C322.3,85.5,332.9,96,332.9,109.1z"/>
	<rect x="209.2" y="262.3" fill="#E5B16A" width="153.5" height="193.3"/>
	<rect x="268.4" y="283.5" fill="#FFF4E0" width="105.5" height="33.2"/>
	<rect x="268.4" y="330.6" fill="#FFF4E0" width="105.5" height="33.2"/>
	<rect x="268.4" y="377.7" fill="#FFF4E0" width="105.5" height="33.2"/>
	<rect x="262.4" y="85.4" fill="#E5B16A" width="23.5" height="51.8"/>
	<rect x="309.4" y="85.4" fill="#E5B16A" width="23.5" height="51.8"/>
	<g>
		<path fill="#FFFFFF" d="M225.1,233c-3,0-5.5-2.5-5.5-5.5v-4.4c0-15.1,14.4-21.6,21.8-21.6h39.7c3,0,5.5,2.5,5.5,5.5
			s-2.5,5.5-5.5,5.5h-39.7c-1.3,0-10.8,2.2-10.8,10.6v4.4C230.6,230.6,228.1,233,225.1,233z"/>
	</g>
</g>
</svg>
