<?xml version="1.0" encoding="utf-8"?>
<!-- Generator: Adobe Illustrator 15.0.2, SVG Export Plug-In . SVG Version: 6.00 Build 0)  -->
<!DOCTYPE svg PUBLIC "-//W3C//DTD SVG 1.1//EN" "http://www.w3.org/Graphics/SVG/1.1/DTD/svg11.dtd">
<svg version="1.1" id="Layer_1" xmlns="http://www.w3.org/2000/svg" xmlns:xlink="http://www.w3.org/1999/xlink" x="0px" y="0px"
	 width="595.275px" height="595.279px" viewBox="0 0 595.275 595.279" enable-background="new 0 0 595.275 595.279"
	 xml:space="preserve">
<g>
	<radialGradient id="SVGID_1_" cx="299.2861" cy="466.7441" r="146.4418" gradientUnits="userSpaceOnUse">
		<stop  offset="0" style="stop-color:#000000"/>
		<stop  offset="0.3455" style="stop-color:#000000"/>
		<stop  offset="0.4334" style="stop-color:#040404"/>
		<stop  offset="0.5164" style="stop-color:#0F0F0F"/>
		<stop  offset="0.5973" style="stop-color:#222222"/>
		<stop  offset="0.6771" style="stop-color:#3D3D3D"/>
		<stop  offset="0.756" style="stop-color:#606060"/>
		<stop  offset="0.8343" style="stop-color:#8A8A8A"/>
		<stop  offset="0.9121" style="stop-color:#BCBCBC"/>
		<stop  offset="0.9876" style="stop-color:#F5F5F5"/>
		<stop  offset="1" style="stop-color:#FFFFFF"/>
	</radialGradient>
	<path opacity="0.22" fill="url(#SVGID_1_)" d="M445.579,463.062c0,8.117-66.23,14.693-147.938,14.693
		c-81.709,0-147.947-6.576-147.947-14.693c0-8.111,66.238-14.688,147.947-14.688C379.349,448.374,445.579,454.95,445.579,463.062z"
		/>
	<g>
		<path fill="#A64A24" d="M340.708,117.524c-43.964,0-81.309,14.373-100.071,35.896h-0.009l-81.982,81.777l5.037,5.191
			c18.509-17.734,52.277-29.6,90.883-29.6c58.506,0,105.936,27.252,105.936,60.871c0,12.924-7.023,24.893-18.974,34.748v98.062
			c0,4.057-1.836,7.656-4.679,10.121l5.126,5.016c0,0,87.649-87.859,89.437-90.059l0.041-0.035l-0.007-0.014
			c2.1-3.221,3.341-7.053,3.341-11.178v-94.801c12.433-11.164,18.976-24.246,18.976-38.01
			C453.762,147.39,404.107,117.524,340.708,117.524z"/>
		<path fill="#FCE3C6" d="M360.501,271.661c0-33.619-47.43-60.871-105.936-60.871c-58.504,0-105.937,27.252-105.937,60.871
			c0,12.924,7.026,24.893,18.976,34.748v98.062c0,7.426,6.023,13.441,13.448,13.441H328.08c7.425,0,13.447-6.016,13.447-13.441
			v-98.062C353.478,296.554,360.501,284.585,360.501,271.661z"/>
		<path fill="#EAAB7A" d="M222.774,260.126c0,2.844-3.11,5.156-6.947,5.156c-3.838,0-6.95-2.312-6.95-5.156
			c0-2.85,3.112-5.154,6.95-5.154C219.664,254.972,222.774,257.276,222.774,260.126z"/>
		<path opacity="0.1" fill="#494F5D" d="M217.038,264.757c-3.151,0-5.715-1.898-5.715-4.246c0-2.338,2.563-4.236,5.715-4.236
			c3.096,0,5.604,1.828,5.701,4.111c0.007-0.092,0.035-0.176,0.035-0.26c0-2.85-3.11-5.154-6.947-5.154
			c-3.838,0-6.95,2.305-6.95,5.154c0,2.844,3.112,5.156,6.95,5.156c2.01,0,3.811-0.645,5.078-1.66
			C219.89,264.321,218.538,264.757,217.038,264.757z"/>
		<path fill="#EAAB7A" d="M198.233,319.507c0,2.85-3.111,5.154-6.949,5.154c-3.839,0-6.947-2.305-6.947-5.154
			c0-2.844,3.108-5.154,6.947-5.154C195.122,314.353,198.233,316.663,198.233,319.507z"/>
		<path opacity="0.1" fill="#494F5D" d="M192.496,324.136c-3.15,0-5.717-1.898-5.717-4.236c0-2.348,2.566-4.244,5.717-4.244
			c3.098,0,5.603,1.826,5.701,4.111c0.007-0.084,0.036-0.17,0.036-0.26c0-2.844-3.111-5.154-6.949-5.154
			c-3.839,0-6.947,2.311-6.947,5.154c0,2.85,3.108,5.154,6.947,5.154c2.009,0,3.812-0.645,5.078-1.66
			C195.346,323.702,193.995,324.136,192.496,324.136z"/>
		<path fill="#EAAB7A" d="M176.828,285.614c0,2.85-3.109,5.154-6.949,5.154c-3.838,0-6.946-2.305-6.946-5.154
			c0-2.844,3.108-5.154,6.946-5.154C173.719,280.46,176.828,282.771,176.828,285.614z"/>
		<path opacity="0.1" fill="#494F5D" d="M165.362,287.597c0-2.844,3.109-5.156,6.948-5.156c1.367,0,2.633,0.309,3.712,0.812
			c-1.163-1.652-3.46-2.793-6.144-2.793c-3.838,0-6.946,2.311-6.946,5.154c0,1.834,1.294,3.432,3.242,4.35
			C165.671,289.249,165.362,288.458,165.362,287.597z"/>
		<path fill="#EAAB7A" d="M250.118,295.315c0,2.844-3.108,5.154-6.947,5.154c-3.838,0-6.949-2.311-6.949-5.154
			c0-2.852,3.111-5.156,6.949-5.156C247.01,290.159,250.118,292.464,250.118,295.315z"/>
		<path opacity="0.1" fill="#494F5D" d="M238.282,297.374c0-2.844,3.109-5.154,6.946-5.154c1.675,0,3.188,0.455,4.385,1.184
			c-1.022-1.898-3.515-3.244-6.442-3.244c-3.838,0-6.949,2.305-6.949,5.156c0,1.604,1.009,3.025,2.564,3.971
			C238.471,298.69,238.282,298.054,238.282,297.374z"/>
		<path fill="#EAAB7A" d="M311.129,390.058c0,2.852-3.108,5.156-6.946,5.156c-3.837,0-6.947-2.305-6.947-5.156
			c0-2.844,3.11-5.154,6.947-5.154C308.021,384.903,311.129,387.214,311.129,390.058z"/>
		<path opacity="0.1" fill="#494F5D" d="M299.3,392.124c0-2.85,3.111-5.154,6.949-5.154c1.665,0,3.181,0.455,4.376,1.184
			c-1.021-1.906-3.515-3.25-6.442-3.25c-3.837,0-6.947,2.311-6.947,5.154c0,1.611,1.016,3.025,2.57,3.973
			C299.483,393.44,299.3,392.796,299.3,392.124z"/>
		<path fill="#EAAB7A" d="M236.445,343.517c0,2.844-3.108,5.154-6.946,5.154c-3.839,0-6.949-2.311-6.949-5.154
			c0-2.852,3.11-5.154,6.949-5.154C233.337,338.362,236.445,340.665,236.445,343.517z"/>
		<path opacity="0.1" fill="#494F5D" d="M224.61,345.575c0-2.844,3.11-5.154,6.947-5.154c1.673,0,3.187,0.455,4.385,1.184
			c-1.023-1.898-3.515-3.242-6.443-3.242c-3.839,0-6.949,2.303-6.949,5.154c0,1.604,1.009,3.025,2.563,3.971
			C224.797,346.892,224.61,346.255,224.61,345.575z"/>
		<path fill="#EAAB7A" d="M294.937,317.272c0,2.85-3.109,5.154-6.947,5.154s-6.948-2.305-6.948-5.154
			c0-2.844,3.11-5.154,6.948-5.154S294.937,314.429,294.937,317.272z"/>
		<path opacity="0.1" fill="#494F5D" d="M282.262,319.458c0-2.844,3.108-5.156,6.946-5.156c2.318,0,4.35,0.848,5.616,2.145
			c-0.538-2.451-3.382-4.328-6.835-4.328c-3.838,0-6.948,2.311-6.948,5.154c0,1.135,0.504,2.172,1.331,3.02
			C282.315,320.019,282.262,319.745,282.262,319.458z"/>
		<path fill="#EAAB7A" d="M336.01,271.046c0,2.85-3.11,5.154-6.948,5.154c-3.84,0-6.95-2.305-6.95-5.154
			c0-2.844,3.11-5.154,6.95-5.154C332.899,265.892,336.01,268.202,336.01,271.046z"/>
		<path opacity="0.1" fill="#494F5D" d="M329.062,273.722c-3.258,0-5.968-1.668-6.725-3.916c-0.133,0.4-0.226,0.812-0.226,1.24
			c0,2.85,3.11,5.154,6.95,5.154c3.838,0,6.948-2.305,6.948-5.154c0-0.428-0.093-0.84-0.226-1.24
			C335.034,272.054,332.324,273.722,329.062,273.722z"/>
		<path fill="#EAAB7A" d="M261.514,373.704c0,2.85-3.11,5.154-6.948,5.154c-3.839,0-6.947-2.305-6.947-5.154
			c0-2.844,3.108-5.156,6.947-5.156C258.403,368.548,261.514,370.86,261.514,373.704z"/>
		<path opacity="0.1" fill="#494F5D" d="M254.565,376.38c-3.263,0-5.975-1.668-6.722-3.916c-0.136,0.398-0.226,0.812-0.226,1.24
			c0,2.85,3.108,5.154,6.947,5.154c3.838,0,6.948-2.305,6.948-5.154c0-0.428-0.091-0.842-0.224-1.24
			C260.534,374.712,257.823,376.38,254.565,376.38z"/>
		<path fill="#EAAB7A" d="M205.18,397.175c0,2.844-3.108,5.154-6.946,5.154c-3.84,0-6.949-2.311-6.949-5.154
			c0-2.852,3.109-5.156,6.949-5.156C202.071,392.019,205.18,394.323,205.18,397.175z"/>
		<path opacity="0.1" fill="#494F5D" d="M198.233,399.851c-3.265,0-5.974-1.676-6.724-3.916c-0.134,0.398-0.226,0.805-0.226,1.24
			c0,2.844,3.109,5.154,6.949,5.154c3.838,0,6.946-2.311,6.946-5.154c0-0.436-0.091-0.842-0.224-1.24
			C204.2,398.175,201.489,399.851,198.233,399.851z"/>
		<path fill="#EAAB7A" d="M334.229,349.911c0,2.844-3.108,5.154-6.946,5.154c-3.839,0-6.949-2.311-6.949-5.154
			c0-2.852,3.11-5.154,6.949-5.154C331.12,344.757,334.229,347.06,334.229,349.911z"/>
		<path opacity="0.1" fill="#494F5D" d="M327.282,352.587c-3.258,0-5.97-1.674-6.725-3.916c-0.133,0.4-0.225,0.807-0.225,1.24
			c0,2.844,3.11,5.154,6.949,5.154c3.838,0,6.946-2.311,6.946-5.154c0-0.434-0.091-0.84-0.224-1.24
			C333.257,350.913,330.545,352.587,327.282,352.587z"/>
		<path fill="#EAAB7A" d="M290.286,255.581c0,2.85-3.108,5.154-6.947,5.154c-3.838,0-6.949-2.305-6.949-5.154
			c0-2.844,3.111-5.154,6.949-5.154C287.178,250.427,290.286,252.737,290.286,255.581z"/>
		<path opacity="0.1" fill="#494F5D" d="M278.372,257.569c0-2.85,3.108-5.154,6.949-5.154c1.701,0,3.241,0.469,4.447,1.219
			c-1.038-1.877-3.516-3.207-6.43-3.207c-3.838,0-6.949,2.311-6.949,5.154c0,1.59,0.987,2.99,2.507,3.936
			C278.562,258.915,278.372,258.257,278.372,257.569z"/>
		<path fill="#EAAB7A" d="M243.394,228.237c0,2.85-3.109,5.154-6.948,5.154c-3.838,0-6.946-2.305-6.946-5.154
			c0-2.844,3.108-5.154,6.946-5.154C240.284,223.083,243.394,225.394,243.394,228.237z"/>
		<path opacity="0.1" fill="#494F5D" d="M231.628,229.7c0-2.85,3.109-5.154,6.947-5.154c1.312,0,2.521,0.281,3.566,0.75
			c-1.263-1.338-3.334-2.213-5.696-2.213c-3.838,0-6.946,2.311-6.946,5.154c0,1.877,1.364,3.502,3.383,4.406
			C232.096,231.81,231.628,230.794,231.628,229.7z"/>
		<path fill="#EAAB7A" d="M176.828,252.892c0.925-1.043,2.171-1.668,3.438-2.164c1.303-0.406,2.719-0.658,4.07-0.301
			C181.695,251.091,179.412,251.995,176.828,252.892z"/>
		<path fill="#EAAB7A" d="M194.478,278.841c0.926-1.043,2.172-1.674,3.439-2.17c1.304-0.406,2.72-0.66,4.07-0.295
			C199.346,277.034,197.062,277.938,194.478,278.841z"/>
		<path fill="#EAAB7A" d="M225.744,254.216c0.925-1.045,2.17-1.674,3.438-2.172c1.303-0.406,2.719-0.658,4.07-0.295
			C230.611,252.407,228.328,253.312,225.744,254.216z"/>
		<path fill="#EAAB7A" d="M257.76,281.782c0.925-1.043,2.17-1.674,3.438-2.17c1.304-0.406,2.72-0.658,4.071-0.295
			C262.628,279.976,260.346,280.88,257.76,281.782z"/>
		<path fill="#EAAB7A" d="M225.492,325.985c0.925-1.043,2.17-1.674,3.438-2.172c1.304-0.406,2.72-0.658,4.071-0.293
			C230.359,324.179,228.076,325.081,225.492,325.985z"/>
		<path fill="#EAAB7A" d="M187.529,313.44c0.925-1.043,2.173-1.674,3.441-2.17c1.302-0.406,2.716-0.658,4.067-0.295
			C192.396,311.634,190.113,312.538,187.529,313.44z"/>
		<path fill="#EAAB7A" d="M300.43,310.8c0.923-1.043,2.169-1.666,3.444-2.164c1.297-0.406,2.72-0.658,4.062-0.301
			C305.295,309.001,303.021,309.903,300.43,310.8z"/>
		<path fill="#EAAB7A" d="M279.324,308.167c0.925-1.043,2.172-1.674,3.446-2.172c1.297-0.406,2.719-0.658,4.062-0.293
			C284.191,306.36,281.917,307.263,279.324,308.167z"/>
		<path fill="#EAAB7A" d="M277.286,288.255c0.926-1.043,2.172-1.668,3.439-2.164c1.302-0.406,2.718-0.658,4.069-0.301
			C282.155,286.454,279.872,287.358,277.286,288.255z"/>
		<path fill="#EAAB7A" d="M296.675,271.13c0.924-1.043,2.171-1.674,3.445-2.172c1.294-0.406,2.717-0.658,4.062-0.293
			C301.541,269.323,299.264,270.226,296.675,271.13z"/>
		<path fill="#EAAB7A" d="M272.637,240.271c0.925-1.045,2.171-1.674,3.446-2.172c1.294-0.406,2.717-0.658,4.062-0.295
			C277.505,238.464,275.227,239.366,272.637,240.271z"/>
		<path fill="#EAAB7A" d="M250.811,263.376c0.925-1.043,2.173-1.666,3.44-2.164c1.303-0.406,2.718-0.658,4.068-0.301
			C255.68,261.577,253.395,262.479,250.811,263.376z"/>
		<path fill="#EAAB7A" d="M302.445,278.841c0.925-1.043,2.171-1.674,3.446-2.17c1.295-0.406,2.716-0.66,4.062-0.295
			C307.312,277.034,305.036,277.938,302.445,278.841z"/>
		<path fill="#EAAB7A" d="M318.358,325.985c0.924-1.043,2.171-1.674,3.445-2.172c1.297-0.406,2.719-0.658,4.062-0.293
			C323.226,324.179,320.95,325.081,318.358,325.985z"/>
		<path fill="#EAAB7A" d="M298.594,346.214c-0.938,1.029-2.192,1.645-3.469,2.129c-1.302,0.385-2.724,0.623-4.067,0.244
			C293.704,347.956,295.995,347.081,298.594,346.214z"/>
		<path fill="#EAAB7A" d="M258.335,306.886c-0.94,1.029-2.193,1.639-3.469,2.121c-1.304,0.393-2.725,0.625-4.069,0.252
			C253.443,308.63,255.735,307.753,258.335,306.886z"/>
		<path fill="#EAAB7A" d="M317.496,298.005c-0.938,1.029-2.19,1.639-3.474,2.121c-1.302,0.393-2.726,0.623-4.068,0.252
			C312.601,299.749,314.892,298.872,317.496,298.005z"/>
		<path fill="#EAAB7A" d="M216.414,363.729c-0.939,1.029-2.19,1.639-3.467,2.123c-1.302,0.393-2.724,0.623-4.07,0.252
			C211.526,365.474,213.817,364.599,216.414,363.729z"/>
		<path fill="#EAAB7A" d="M188.104,363.729c-0.938,1.029-2.192,1.639-3.467,2.123c-1.303,0.393-2.726,0.623-4.068,0.252
			C183.216,365.474,185.507,364.599,188.104,363.729z"/>
		<path fill="#EAAB7A" d="M198.246,344.931c-0.938,1.029-2.192,1.646-3.467,2.129c-1.302,0.387-2.724,0.625-4.07,0.246
			C193.358,346.675,195.646,345.8,198.246,344.931z"/>
		<path fill="#EAAB7A" d="M198.808,355.065c-0.939,1.029-2.194,1.639-3.467,2.123c-1.303,0.393-2.725,0.623-4.07,0.252
			C193.919,356.81,196.208,355.935,198.808,355.065z"/>
		<path fill="#EAAB7A" d="M226.319,318.226c-0.94,1.029-2.194,1.645-3.467,2.129c-1.303,0.385-2.725,0.623-4.07,0.244
			C221.43,319.97,223.721,319.093,226.319,318.226z"/>
		<path fill="#EAAB7A" d="M226.319,300.567c-0.94,1.029-2.194,1.639-3.467,2.123c-1.303,0.393-2.725,0.623-4.07,0.252
			C221.43,302.312,223.721,301.437,226.319,300.567z"/>
		<path fill="#EAAB7A" d="M339.775,254.3c-0.937,1.029-2.19,1.645-3.466,2.129c-1.303,0.385-2.725,0.623-4.068,0.244
			C334.888,256.044,337.18,255.167,339.775,254.3z"/>
		<path fill="#EAAB7A" d="M343.545,263.999c-0.938,1.029-2.192,1.639-3.469,2.123c-1.302,0.393-2.724,0.623-4.066,0.252
			C338.655,265.743,340.945,264.868,343.545,263.999z"/>
		<path fill="#EAAB7A" d="M317.496,250.292c-0.938,1.031-2.19,1.646-3.474,2.131c-1.302,0.385-2.726,0.623-4.068,0.244
			C312.601,252.036,314.892,251.161,317.496,250.292z"/>
		<path fill="#EAAB7A" d="M253.382,221.8c-0.938,1.029-2.191,1.646-3.468,2.129c-1.303,0.387-2.724,0.625-4.068,0.246
			C248.492,223.544,250.784,222.669,253.382,221.8z"/>
		<path fill="#EAAB7A" d="M262.103,390.737c-0.94,1.029-2.194,1.639-3.466,2.123c-1.304,0.391-2.726,0.623-4.071,0.252
			C257.213,392.481,259.503,391.606,262.103,390.737z"/>
		<path fill="#EAAB7A" d="M304.195,397.847c-0.936,1.029-2.19,1.646-3.467,2.129c-1.301,0.385-2.724,0.623-4.069,0.246
			C299.308,399.591,301.599,398.716,304.195,397.847z"/>
		<path fill="#EAAB7A" d="M325.881,356.349c-0.938,1.029-2.192,1.639-3.469,2.121c-1.302,0.393-2.724,0.623-4.066,0.252
			C320.991,358.091,323.282,357.216,325.881,356.349z"/>
		<path fill="#EAAB7A" d="M269.036,362.448c-0.938,1.029-2.19,1.639-3.467,2.123c-1.303,0.391-2.724,0.623-4.07,0.252
			C264.146,364.192,266.438,363.317,269.036,362.448z"/>
		<path fill="#EAAB7A" d="M253.382,363.729c-0.938,1.029-2.191,1.639-3.468,2.123c-1.303,0.393-2.724,0.623-4.068,0.252
			C248.492,365.474,250.784,364.599,253.382,363.729z"/>
		<path fill="#EAAB7A" d="M212.646,401.048c-0.938,1.029-2.192,1.639-3.467,2.121c-1.303,0.393-2.724,0.625-4.069,0.252
			C207.76,402.792,210.047,401.915,212.646,401.048z"/>
		<path fill="#EAAB7A" d="M188.104,397.847c-0.938,1.029-2.192,1.646-3.467,2.129c-1.303,0.385-2.726,0.623-4.068,0.246
			C183.216,399.591,185.507,398.716,188.104,397.847z"/>
		<path fill="#EAAB7A" d="M233.267,401.048c-0.938,1.029-2.191,1.639-3.467,2.121c-1.304,0.393-2.725,0.625-4.071,0.252
			C228.377,402.792,230.669,401.915,233.267,401.048z"/>
		<path fill="#EAAB7A" d="M243.76,378.858c-0.94,1.029-2.192,1.646-3.468,2.129c-1.303,0.387-2.725,0.623-4.07,0.246
			C238.87,380.603,241.16,379.728,243.76,378.858z"/>
		<path fill="#EAAB7A" d="M307.697,377.577c-0.936,1.029-2.19,1.646-3.467,2.129c-1.301,0.385-2.724,0.623-4.07,0.246
			C302.81,379.321,305.101,378.446,307.697,377.577z"/>
		<path fill="#EAAB7A" d="M322.111,383.622c-0.937,1.029-2.19,1.645-3.466,2.129c-1.302,0.385-2.725,0.623-4.069,0.244
			C317.224,385.366,319.514,384.489,322.111,383.622z"/>
		<path fill="#EAAB7A" d="M194.478,388.188c-0.938,1.029-2.191,1.639-3.466,2.121c-1.304,0.393-2.726,0.625-4.069,0.252
			C189.589,389.933,191.879,389.056,194.478,388.188z"/>
		<path fill="#782118" d="M328.08,425.028H181.053c-11.341,0-20.565-9.223-20.565-20.557v-94.799
			c-12.425-11.172-18.974-24.248-18.974-38.012c0-38.121,49.659-67.986,113.052-67.986c63.395,0,113.053,29.865,113.053,67.986
			c0,13.764-6.543,26.84-18.976,38.012v94.799C348.643,415.806,339.419,425.028,328.08,425.028z M254.565,217.905
			c-53.566,0-98.819,24.613-98.819,53.756c0,13.014,8.916,23.094,16.382,29.256l2.593,2.137v101.418
			c0,3.488,2.837,6.326,6.332,6.326H328.08c3.495,0,6.339-2.838,6.339-6.326V303.054l2.584-2.137
			c7.475-6.162,16.384-16.242,16.384-29.256C353.387,242.519,308.131,217.905,254.565,217.905z"/>
		<path opacity="0.15" d="M254.565,203.675c-5.449,0-10.786,0.238-16.01,0.664c55.549,4.547,97.047,32.479,97.047,67.322
			c0,13.764-12.173,22.75-18.975,38.012c-9.65,21.643,0,94.799,0,94.799c0,11.334-9.225,20.557-20.562,20.557h32.015
			c11.339,0,20.562-9.223,20.562-20.557v-94.799c12.433-11.172,18.976-24.248,18.976-38.012
			C367.618,233.54,317.96,203.675,254.565,203.675z"/>
		<path opacity="0.3" fill="#FFFFFF" d="M220.499,404.472c0,0,9.644-73.156,0-94.799c-6.802-15.262-18.975-24.248-18.975-38.012
			c0-31.846,34.67-57.922,83.047-65.641c-9.526-1.52-19.576-2.346-30.006-2.346c-63.393,0-113.052,29.865-113.052,67.986
			c0,13.764,6.549,26.84,18.974,38.012v94.799c0,11.334,9.225,20.557,20.565,20.557h60.009
			C229.722,425.028,220.499,415.806,220.499,404.472z"/>
		<path opacity="0.15" d="M289.769,184.462c11.423-0.211,22.86,1.24,34.06,3.797c11.186,2.57,22.161,6.59,32.135,12.578
			c9.883,6.018,18.806,14.344,23.995,24.906c2.6,5.24,4.314,10.877,5.136,16.6c0.714,5.736,0.666,11.529-0.197,17.174
			c0.231-11.367-1.841-22.812-7.374-32.477c-5.47-9.688-13.883-17.406-23.422-23.135c-9.525-5.834-20.138-9.84-30.959-12.986
			c-5.429-1.574-10.947-2.844-16.521-3.879C301.059,185.897,295.435,185.093,289.769,184.462z"/>
		<g>
			<path opacity="0.15" d="M273.651,160.157c-11.425-0.203-22.861,1.24-34.061,3.797c-4.566,1.051-9.07,2.416-13.511,3.979
				l-6.177,6.156c6.562-2.998,13.412-5.441,20.375-7.473c5.428-1.576,10.947-2.844,16.521-3.881
				C262.362,161.601,267.985,160.788,273.651,160.157z"/>
		</g>
		<g>
			<path opacity="0.15" d="M191.306,202.624l-9.862,9.834c1.345-0.926,2.717-1.822,4.118-2.67
				c9.525-5.826,20.136-9.834,30.959-12.984c5.427-1.576,10.948-2.844,16.521-3.881c5.563-1.135,11.186-1.947,16.853-2.578
				c-11.423-0.203-22.861,1.24-34.061,3.797C207.43,196.075,199.143,198.827,191.306,202.624z"/>
		</g>
		<g>
			<path opacity="0.15" d="M281.175,140.952c5.561-1.135,11.185-1.945,16.852-2.576c-11.424-0.203-22.862,1.238-34.061,3.795
				c-5.97,1.373-11.858,3.195-17.589,5.471c-2.053,1.871-3.998,3.783-5.74,5.779h-0.009l-1.289,1.287
				c8.007-4.174,16.578-7.332,25.312-9.875C270.079,143.257,275.599,141.989,281.175,140.952z"/>
		</g>
		<path opacity="0.15" d="M320.669,153.56c11.425-0.209,22.86,1.24,34.06,3.797c11.186,2.57,22.163,6.59,32.135,12.58
			c9.883,6.016,18.808,14.344,23.996,24.906c2.601,5.238,4.315,10.877,5.136,16.6c0.714,5.736,0.664,11.527-0.198,17.174
			c0.232-11.369-1.841-22.812-7.374-32.479c-5.469-9.688-13.882-17.404-23.422-23.135c-9.526-5.834-20.135-9.84-30.957-12.984
			c-5.428-1.576-10.948-2.844-16.521-3.881C331.96,154.995,326.337,154.19,320.669,153.56z"/>
		<path opacity="0.15" fill="#FFFFFF" d="M158.653,235.214c4.909-4.729,10.758-9.043,17.412-12.867
			c0.112-0.07,0.229-0.141,0.35-0.203c4.902-2.795,10.227-5.322,15.929-7.543c0.272-0.113,0.551-0.211,0.825-0.316
			c1.61-0.623,3.256-1.211,4.93-1.777c0.315-0.113,0.63-0.225,0.946-0.33c3.874-1.289,7.885-2.443,12.031-3.453
			c0.415-0.105,0.829-0.195,1.241-0.287c1.633-0.385,3.285-0.75,4.958-1.092c0.57-0.113,1.136-0.232,1.702-0.336
			c1.695-0.33,3.412-0.639,5.147-0.918c0.429-0.07,0.855-0.148,1.289-0.211c2.151-0.336,4.329-0.631,6.528-0.889
			c0.428-0.057,0.861-0.092,1.283-0.141c1.771-0.195,3.55-0.363,5.35-0.512c0.715-0.062,1.43-0.111,2.146-0.16
			c1.616-0.113,3.24-0.203,4.88-0.281c0.688-0.027,1.365-0.07,2.059-0.09c2.283-0.078,4.582-0.133,6.906-0.133
			c20.775,0,37.457,2.402,50.541,6.947c5.359,1.568,10.451,3.396,15.27,5.436c-16.061-13.463-42.803-26.596-87.375-34.586
			c-6.402-1.148-9.268-5.799-10.598-9.869l-63.758,63.596L158.653,235.214L158.653,235.214z"/>
		<path opacity="0.15" d="M340.708,117.524c-31.902,0-60.283,7.6-80.646,19.977c12.294,10.777,38.321,26.068,92.259,36.588
			c91.442,17.84,67.056,83.881-3.679,135.584l42.117,60.977c20.479-20.584,39.825-40.076,40.651-41.1l0.041-0.035l-0.007-0.014
			c2.1-3.221,3.341-7.053,3.341-11.178v-94.801c12.433-11.164,18.976-24.246,18.976-38.01
			C453.762,147.39,404.107,117.524,340.708,117.524z"/>
		<path opacity="0.15" d="M405.11,356.214c14.364-14.463,25.669-25.887,26.301-26.664l0.041-0.035l-0.007-0.014
			c2.1-3.221,3.341-7.053,3.341-11.178v-94.801c0,0-32.26,37.164-32.26,66.441C402.526,306.466,407.933,331.421,405.11,356.214z"/>
	</g>
</g>
</svg>
