<?xml version="1.0" encoding="utf-8"?>
<!-- Generator: Adobe Illustrator 15.0.2, SVG Export Plug-In . SVG Version: 6.00 Build 0)  -->
<!DOCTYPE svg PUBLIC "-//W3C//DTD SVG 1.1//EN" "http://www.w3.org/Graphics/SVG/1.1/DTD/svg11.dtd">
<svg version="1.1" id="Layer_1" xmlns="http://www.w3.org/2000/svg" xmlns:xlink="http://www.w3.org/1999/xlink" x="0px" y="0px"
	 width="595.28px" height="595.28px" viewBox="0 0 595.28 595.28" enable-background="new 0 0 595.28 595.28" xml:space="preserve">
<g>
	<path fill="#D6D8D7" d="M242.973,219.314c0,0,34.244-175.42,54.403-175.359c47.011,0.133-38.238,182.579-38.238,182.579
		L242.973,219.314z"/>
	<path fill="#EAECEC" d="M214.249,251.3H98.819l20.292,220.968l0,0c0,11.36,42.594,20.569,95.138,20.569
		c52.553,0,95.15-9.209,95.15-20.569L329.691,251.3H214.249z"/>
	<path fill="#E63328" d="M250.881,481.815v48.94c0,11.361,54.971,20.569,122.789,20.569s122.792-9.208,122.792-20.569v-48.94
		H250.881z"/>
	<path fill="#E83E39" d="M496.461,481.815c0,11.367-54.974,20.57-122.792,20.57s-122.789-9.203-122.789-20.57
		c0-11.361,54.971-20.576,122.789-20.576S496.461,470.454,496.461,481.815z"/>
	<path fill="#D6D8D7" d="M329.691,251.3c0,11.367-51.688,20.582-115.442,20.582c-63.742,0-115.43-9.215-115.43-20.582
		c0-11.362,51.688-20.564,115.43-20.564C278.003,230.736,329.691,239.938,329.691,251.3z"/>
	<path fill="#EAECEC" d="M321.61,251.3c0,8.393-48.076,15.188-107.361,15.188c-59.286,0-107.349-6.796-107.349-15.188
		c0-8.38,48.063-15.177,107.349-15.177C273.534,236.124,321.61,242.92,321.61,251.3z"/>
	<path fill="#E83E39" d="M214.249,315.979c-61.517,0-111.379-9.209-111.379-20.577l11.803,128.548
		c0,11.361,44.583,20.569,99.576,20.569c55.005,0,99.588-9.208,99.588-20.569l11.802-128.548
		C325.64,306.771,275.766,315.979,214.249,315.979z"/>
	<path fill="#FFFFFF" d="M283.251,234.721c-3.477-9.698-14.118-16.295-27.753-20.57c7.123-36.52-45.367-42.022-45.367-42.022
		c9.686,10.23,0,16.168,0,16.168c-21.84,0-30.955,12.964-34.525,21.078c-1.941,0.302-3.743,0.635-5.333,1.004
		c-17.529,3.96-23.875,15.437-26.181,23.714c-26.037,9.626-23.848,24.543-23.848,24.543c18.291,4.686,53.529,7.854,94.004,7.854
		c40.487,0,75.726-3.168,94.022-7.854C307.271,247.896,297.805,240.065,283.251,234.721z"/>
</g>
</svg>
