<?xml version="1.0" encoding="utf-8"?>
<!-- Generator: Adobe Illustrator 15.0.2, SVG Export Plug-In . SVG Version: 6.00 Build 0)  -->
<!DOCTYPE svg PUBLIC "-//W3C//DTD SVG 1.1//EN" "http://www.w3.org/Graphics/SVG/1.1/DTD/svg11.dtd">
<svg version="1.1" id="Layer_1" xmlns="http://www.w3.org/2000/svg" xmlns:xlink="http://www.w3.org/1999/xlink" x="0px" y="0px"
	 width="595.28px" height="595.279px" viewBox="0 0 595.28 595.279" enable-background="new 0 0 595.28 595.279"
	 xml:space="preserve">
<g>
	<path fill="#A4C422" d="M74.271,355.979c0,0-20.312,3.275-19.337,10.574c0,0-11.157,3.771-10.34,8.844
		c0.829,5.085,8.617,7.751,8.617,7.751s-7.278,5.875,0.911,11.841c8.191,5.966,22.739,0.646,22.739,0.646L74.271,355.979z"/>
	
		<linearGradient id="SVGID_1_" gradientUnits="userSpaceOnUse" x1="738.1758" y1="687.4746" x2="732.6807" y2="861.1263" gradientTransform="matrix(0.9732 -0.2301 0.2301 0.9732 -588.1609 -280.5547)">
		<stop  offset="0" style="stop-color:#85AA52"/>
		<stop  offset="1" style="stop-color:#435932"/>
	</linearGradient>
	<path fill="url(#SVGID_1_)" d="M69.414,387.981c0,0-15.959-10.159,2.021-26.453c0,0-6.158-18.121,23.067-31.429
		c29.23-13.313,80.05-32.484,117.593-56.788c37.551-24.323,122.875-87.029,184.58-103.117
		c61.699-16.094,120.442-16.052,143.003,33.208c22.561,49.254,15.69,99.823-69.221,151.514
		c-84.911,51.698-298.994,82.541-336.415,79.531C96.622,431.432,56.044,407.894,69.414,387.981z"/>
	<path opacity="0.3" fill="#313B23" d="M465.827,335.33c-84.914,51.704-299,82.541-336.416,79.531
		c-24.183-1.948-49.66-12.468-61.07-25.046c-9.818,19.503,29.419,41.714,65.701,44.634c37.421,3.01,251.504-27.833,336.415-79.531
		c76.864-46.793,89.778-92.668,74.801-137.477C550.484,256.005,531.528,295.33,465.827,335.33z"/>
	<path fill="#A6C06E" d="M205.238,290.866c42.793-25.553,140.24-91.137,209.878-109.096c33.95-8.758,66.988-13.615,94.717-10.641
		c-28.871-15.485-70.295-12.113-113.158-0.935c-61.705,16.088-147.029,78.794-184.58,103.117
		c-37.543,24.304-88.362,43.475-117.593,56.788c-15.086,6.866-20.729,15.009-22.673,21.289
		C104.986,337.146,162.469,316.407,205.238,290.866z"/>
	<path fill="#C4AD8C" d="M543.635,199.832c0,0-9.341-9.652-12.118-5.888c-2.787,3.758,7.488,30.216,14.42,24.269
		C551.39,213.525,543.635,199.832,543.635,199.832z"/>
	<path fill="#4F6C37" d="M125.632,336.761c0,0-0.808,0.639-2.25,1.701c-1.459,1.049-3.57,2.485-6.174,4.125
		c-2.608,1.605-5.725,3.354-9.1,5.176c-1.723,0.833-3.511,1.725-5.356,2.534c-1.843,0.808-3.71,1.689-5.596,2.474
		c-1.899,0.718-3.806,1.423-5.676,2.129c-1.864,0.718-3.728,1.315-5.508,1.961c-3.565,1.261-6.871,2.424-9.646,3.541
		c-1.382,0.561-2.63,1.11-3.723,1.635c-1.067,0.542-1.99,1.061-2.72,1.544c-0.69,0.513-1.285,0.905-1.603,1.255
		c-0.35,0.325-0.533,0.506-0.533,0.506s0.117-0.229,0.35-0.664c0.211-0.434,0.618-1.025,1.204-1.749
		c0.603-0.688,1.387-1.496,2.389-2.292c0.992-0.808,2.156-1.677,3.48-2.485c2.642-1.677,5.866-3.318,9.359-4.881
		c1.755-0.766,3.553-1.604,5.411-2.328c1.849-0.742,3.728-1.502,5.609-2.263c1.87-0.729,3.701-1.532,5.532-2.28
		c1.812-0.784,3.652-1.424,5.396-2.147c3.466-1.509,6.754-2.824,9.601-3.903C121.702,338.051,125.632,336.761,125.632,336.761z"/>
	<path fill="#49692F" d="M67.134,386.087c0,0,0.169,0.018,0.477,0.078c0.308,0.072,0.79,0.061,1.345,0.139
		c0.55,0.091,1.237,0.091,2.027,0.108c0.796-0.018,1.629,0.115,2.6,0.013c0.953-0.066,1.973-0.14,3.037-0.157
		c1.071-0.042,2.206-0.338,3.366-0.416c1.164-0.169,2.355-0.217,3.565-0.555c1.203-0.284,2.434-0.52,3.667-0.761l1.844-0.325
		c0.609-0.182,1.213-0.35,1.812-0.525c1.188-0.355,2.395-0.621,3.551-0.923c1.139-0.344,2.316-0.465,3.359-0.832
		c1.038-0.362,2.045-0.652,2.979-0.917c3.731-1.098,6.458-1.497,6.458-1.497s-2.042,1.72-5.462,3.813
		c-0.856,0.531-1.782,1.109-2.79,1.665c-0.99,0.579-2.148,0.978-3.314,1.43c-1.174,0.44-2.384,0.946-3.635,1.363
		c-0.631,0.217-1.261,0.428-1.892,0.646l-1.993,0.397c-1.336,0.242-2.67,0.483-3.988,0.676c-1.3,0.296-2.656,0.146-3.933,0.193
		c-1.282-0.019-2.507,0-3.677-0.157c-1.173-0.181-2.259-0.41-3.264-0.627c-0.998-0.133-1.882-0.609-2.657-0.875
		c-0.781-0.271-1.433-0.585-1.954-0.917C67.616,386.533,67.134,386.087,67.134,386.087z"/>
	<path fill="#4F6C37" d="M378.388,202.745c0,0,2.184-1.146,6.126-2.913c3.944-1.731,9.646-4.09,16.652-6.484
		c6.995-2.414,15.295-4.875,24.331-6.968c4.525-0.995,9.203-2.057,14.022-2.811c4.813-0.802,9.733-1.46,14.665-1.997
		c4.943-0.489,9.908-0.754,14.797-0.941c4.896-0.15,9.725,0,14.382,0.265c4.666,0.248,9.156,0.772,13.389,1.43
		c4.234,0.621,8.194,1.508,11.812,2.425c1.797,0.507,3.517,0.989,5.157,1.447c1.602,0.567,3.125,1.104,4.555,1.599
		c2.868,0.947,5.232,2.172,7.227,2.992c1.954,0.923,3.433,1.792,4.452,2.316c1.016,0.543,1.562,0.839,1.562,0.839
		s-2.353-0.706-6.47-1.925c-2.097-0.476-4.563-1.243-7.478-1.797c-1.448-0.29-2.989-0.609-4.615-0.929
		c-1.631-0.265-3.345-0.543-5.143-0.838c-3.598-0.477-7.495-0.923-11.627-1.237c-4.135-0.32-8.506-0.434-13.021-0.525
		c-2.265-0.066-4.563,0.042-6.89,0.055c-2.331,0.078-4.684,0.156-7.055,0.241c-4.747,0.253-9.567,0.603-14.378,1.134
		c-4.813,0.446-9.624,1.013-14.339,1.737c-4.715,0.7-9.368,1.388-13.854,2.189c-4.473,0.863-8.816,1.599-12.909,2.461
		c-4.096,0.875-7.975,1.696-11.549,2.462C387.916,200.206,378.388,202.745,378.388,202.745z"/>
	<path fill="#4F6C37" d="M535.389,210.328c0,0-0.217,1.454-1.037,3.903c-0.413,1.212-0.938,2.703-1.698,4.313
		c-0.718,1.659-1.635,3.475-2.73,5.386c-1.112,1.913-2.334,3.994-3.854,6.021c-1.415,2.124-3.119,4.175-4.875,6.322
		c-1.824,2.075-3.758,4.186-5.833,6.219c-2.135,1.948-4.216,4.06-6.542,5.87c-2.316,1.804-4.545,3.74-6.979,5.309
		c-1.191,0.808-2.376,1.616-3.547,2.413c-1.164,0.809-2.341,1.556-3.55,2.214c-2.371,1.394-4.693,2.678-6.896,3.867
		c-2.257,1.122-4.419,2.099-6.415,2.998c-0.995,0.446-1.955,0.875-2.859,1.273c-0.938,0.35-1.831,0.669-2.67,0.977
		c-1.664,0.628-3.139,1.098-4.349,1.508c-2.422,0.796-3.825,1.195-3.825,1.195s1.162-0.917,3.246-2.371
		c1.043-0.718,2.292-1.617,3.771-2.57c1.478-0.941,3.095-2.081,4.85-3.33c1.753-1.237,3.655-2.563,5.707-3.885
		c1.981-1.448,4.029-3.01,6.207-4.53c2.217-1.472,4.282-3.288,6.538-4.904c2.251-1.629,4.365-3.487,6.566-5.243
		c2.254-1.7,4.238-3.691,6.38-5.447c2.045-1.864,4.026-3.734,5.942-5.543c1.815-1.9,3.73-3.607,5.32-5.43
		c1.664-1.761,3.17-3.486,4.575-5.085c1.336-1.634,2.615-3.125,3.662-4.506c1.059-1.388,1.972-2.594,2.696-3.619
		c0.693-1.05,1.3-1.858,1.641-2.438C535.196,210.636,535.389,210.328,535.389,210.328z"/>
	<path fill="#49692F" d="M542.962,219.346c0,0,0.154,0.64,0.311,1.858c0.193,1.219,0.345,3.022,0.393,5.333
		c-0.021,1.146-0.039,2.431-0.066,3.825c-0.071,1.387-0.289,2.871-0.455,4.481c-0.117,1.623-0.504,3.293-0.856,5.08
		c-0.371,1.773-0.709,3.673-1.366,5.55c-0.601,1.906-1.225,3.897-1.871,5.954c-0.859,1.979-1.752,4.018-2.672,6.111
		c-0.842,2.153-2.041,4.168-3.227,6.267c-0.594,1.044-1.195,2.111-1.811,3.173c-0.621,1.062-1.206,2.166-1.979,3.143
		c-2.992,3.981-5.73,8.439-9.435,12.154c-1.765,1.943-3.541,3.897-5.329,5.858c-1.942,1.786-3.903,3.571-5.86,5.369
		c-2.009,1.737-3.919,3.596-6.006,5.194c-2.123,1.568-4.237,3.113-6.337,4.657c-2.093,1.544-4.165,3.094-6.273,4.518
		c-2.188,1.297-4.347,2.582-6.473,3.843c-4.273,2.461-8.279,5.091-12.438,6.877c-4.069,1.955-7.944,3.728-11.522,5.345
		c-3.517,1.761-6.985,2.799-9.975,3.909c-2.998,1.086-5.634,1.972-7.797,2.715c-4.328,1.447-6.811,2.231-6.811,2.231
		s2.283-1.303,6.311-3.444c2.009-1.062,4.458-2.335,7.269-3.807c2.787-1.484,6.036-2.944,9.329-5.001
		c3.346-1.973,6.961-4.102,10.819-6.268c0.962-0.543,1.937-1.098,2.926-1.659c0.975-0.573,1.896-1.261,2.866-1.895
		c1.918-1.315,3.908-2.587,5.917-3.915c2.009-1.315,4.054-2.654,6.123-4.006c1.954-1.502,3.938-3.028,5.936-4.548
		c1.999-1.521,4.018-3.053,6.051-4.585c1.99-1.581,3.775-3.396,5.694-5.073c1.903-1.695,3.8-3.378,5.697-5.061
		c1.729-1.84,3.444-3.68,5.154-5.507c3.568-3.523,6.41-7.51,9.411-11.215c1.495-1.846,2.575-3.92,3.903-5.785
		c1.267-1.9,2.562-3.746,3.498-5.7c1.025-1.93,2.026-3.801,2.995-5.61c0.812-1.889,1.593-3.71,2.344-5.453
		c0.841-1.732,1.287-3.5,1.876-5.152c0.555-1.647,1.146-3.215,1.453-4.742c0.369-1.514,0.719-2.932,1.038-4.253
		c0.235-1.333,0.449-2.563,0.648-3.674c0.274-2.22,0.528-4.006,0.552-5.212C542.993,220.004,542.962,219.346,542.962,219.346z"/>
</g>
</svg>
